# xmcd
#
# Track frame offsets: 
#        150
#        12477
#        28666
#        43410
#        60892
#        79132
#        97184
#        110711
#        131295
#        145253
#        160413
#        178800
#        193363
#        214974
#        233749
#        249016
#        264758
#        281659
#        296093
#        314587
#
# Disc length: 4384 seconds
#
# Revision: 1
# Processed by: cddbd v1.5.2PL0 Copyright (c) Steve Scherf et al.
# Submitted via: ExactAudioCopy v0.90b4
#
DISCID=2f111e14
DTITLE=Various Artist - Country hits 2008
DYEAR=2008
DGENRE=Country
TTITLE0=Jessie Farrel - Lucky
TTITLE1=Billy Currington - Good Directions  
TTITLE2=Jack Ingram - Measure Of A Man
TTITLE3=Sugarland - Everyday America
TTITLE4=Gary Alan - Watching Airplanes
TTITLE5=Doc Walker - Driving With The Brakes On
TTITLE6=Joe Nichols - Another Side Of You
TTITLE7=George Canyon - I Want You To Live
TTITLE8=The Wilkinsons - Nobody Died 
TTITLE9=Emerson Drive - Everyday Woman
TTITLE10=Billy Ray Cyrus - Ready Set Dont Go
TTITLE11=Johnny Reid - Love Sweet Love
TTITLE12=Paul Brandt - Didnt Even See the Dust
TTITLE13=Aaron Pritchett - Hold My Beer 
TTITLE14=Willie Mack - Gonna Get Me A Cadillac
TTITLE15=Josh Turner - Firecaracker
TTITLE16=Carolyn Dawn Johnson - Into You
TTITLE17=Gord Bamford - Blame It On That Red Dress
TTITLE18=Blake Shelton - Dont Make Me
TTITLE19=Alex J Robinson - Breakin On The Love Thing
EXTD=
EXTT0=
EXTT1=
EXTT2=
EXTT3=
EXTT4=
EXTT5=
EXTT6=
EXTT7=
EXTT8=
EXTT9=
EXTT10=
EXTT11=
EXTT12=
EXTT13=
EXTT14=
EXTT15=
EXTT16=
EXTT17=
EXTT18=
EXTT19=
PLAYORDER=
